<?xml version="1.0" encoding="UTF-8"?>
<svg version="1.1" xmlns="http://www.w3.org/2000/svg" width="1024" height="1024">
<path d="M0 0 C337.92 0 675.84 0 1024 0 C1024 337.92 1024 675.84 1024 1024 C686.08 1024 348.16 1024 0 1024 C0 686.08 0 348.16 0 0 Z " fill="#FEFEFE" transform="translate(0,0)"/>
<path d="M0 0 C24.01211315 11.21304154 48.72148054 16.3638042 75.19921875 16.62109375 C77.55143592 16.65403855 79.90364937 16.68725009 82.25585938 16.72070312 C85.90418934 16.76791249 89.55250491 16.81239202 93.20092773 16.85180664 C110.28202175 17.04474155 126.76964428 17.530238 143.4375 21.625 C144.3238916 21.84115967 145.2102832 22.05731934 146.12353516 22.2800293 C166.3170608 27.4005174 183.63753545 37.1016323 199.5078125 50.4140625 C222.20993152 69.38785673 245.52255488 80.02994103 273.67138672 88.41894531 C306.87711399 98.3285344 338.63547951 115.09146455 360.875 142.375 C361.69613281 143.35855469 362.51726563 144.34210938 363.36328125 145.35546875 C385.48137546 172.29152309 396.92437611 201.32379917 394.875 236.375 C393.12478006 251.15563745 385.50214861 264.350971 375.875 275.375 C375.08867188 276.35855469 374.30234375 277.34210938 373.4921875 278.35546875 C352.47529754 302.60331344 317.10160476 309.14748931 286.89401245 312.46829224 C261.07053255 315.35619967 236.92193458 321.2029553 212.16870117 328.96850586 C163.93675239 344.07104127 122.40557957 342.38976406 73.34054565 331.70028687 C48.333508 326.25671119 23.68850475 322.57182291 -1.9375 321.9375 C-35.43382794 320.9662451 -70.70359345 317.8256863 -102.125 305.375 C-102.50785156 307.22158203 -102.50785156 307.22158203 -102.8984375 309.10546875 C-103.96468439 313.90357973 -105.33102194 318.58161247 -106.73876953 323.2890625 C-115.62148033 353.14114708 -121.47287907 383.60591044 -126.125 414.375 C-126.37805908 416.04272461 -126.37805908 416.04272461 -126.63623047 417.74414062 C-128.93680217 433.22656718 -130.15126961 448.75879894 -131.125 464.375 C-131.18429687 465.24753418 -131.24359375 466.12006836 -131.3046875 467.01904297 C-134.25504855 511.00225275 -132.99129554 556.64404522 -126.58154297 600.26660156 C-126.14611247 603.23125458 -125.73300205 606.19852855 -125.32337952 609.1668396 C-123.20171168 624.44388142 -120.74460676 639.50562315 -117.00463867 654.48583984 C-115.12946522 662.2317913 -113.22970164 670.44401081 -116.8125 677.875 C-120.44002732 681.79665116 -123.15692566 683.52928549 -128.5 683.9375 C-132.78430818 683.73076966 -135.51314468 682.71586699 -138.52075195 679.62060547 C-144.59274785 671.12110489 -145.63844705 656.89672983 -147.5625 646.6875 C-147.71085297 645.90575409 -147.85920593 645.12400818 -148.01205444 644.318573 C-150.49712356 631.08448986 -152.38009511 617.81062087 -153.9375 604.4375 C-154.03650604 603.60143219 -154.13551208 602.76536438 -154.23751831 601.90396118 C-157.564966 573.41990087 -158.53690184 545.01989683 -158.5 516.375 C-158.49976082 515.54750748 -158.49952164 514.72001495 -158.49927521 513.8674469 C-158.48919596 486.20249936 -157.68568951 458.84430746 -154.125 431.375 C-154.01373779 430.50818604 -153.90247559 429.64137207 -153.7878418 428.74829102 C-147.99973103 384.04733918 -138.56198372 340.10263868 -124.125 297.375 C-124.84308838 297.25366699 -125.56117676 297.13233398 -126.30102539 297.00732422 C-129.1762511 296.36352422 -131.61180191 295.43792091 -134.30859375 294.2578125 C-135.30721436 293.82154541 -136.30583496 293.38527832 -137.3347168 292.93579102 C-138.39988525 292.46197998 -139.46505371 291.98816895 -140.5625 291.5 C-142.22889526 290.76124634 -142.22889526 290.76124634 -143.92895508 290.00756836 C-157.6321478 283.87619176 -171.03843006 277.23439759 -184.16162109 269.94360352 C-211.11456311 254.98295035 -239.48354286 244.04025865 -268.47265625 233.7578125 C-296.7896543 223.66152968 -324.98246405 210.9090173 -348.125 191.375 C-348.66463379 190.92044434 -349.20426758 190.46588867 -349.76025391 189.99755859 C-366.19399315 175.95348064 -379.04595208 159.59977645 -381.44140625 137.44921875 C-382.55852097 110.81864515 -365.39852438 86.94960681 -348.4375 68.0625 C-347.69757813 67.26070313 -346.95765625 66.45890625 -346.1953125 65.6328125 C-344.34071134 63.61024746 -342.57464839 61.54016016 -340.8125 59.4375 C-327.19686063 43.92127939 -309.84520556 32.6421412 -292.125 22.375 C-291.49126465 22.00777832 -290.8575293 21.64055664 -290.20458984 21.26220703 C-206.95493577 -26.34416244 -87.98461508 -41.21274606 0 0 Z " fill="#B6CF8F" transform="translate(501.125,190.625)"/>
<path d="M0 0 C8.22831123 0.74475226 13.26007021 6.6147075 18.38085938 12.61914062 C26.72251671 22.95894388 33.42163299 34.49370205 40 46 C40.59893066 47.03882324 40.59893066 47.03882324 41.20996094 48.09863281 C57.25310871 76.19153425 72.1522809 111.73236975 77 144 C77.61746094 143.18917969 78.23492187 142.37835938 78.87109375 141.54296875 C84.44530224 134.24533884 90.13618247 127.06843878 96 120 C96.74894531 119.06414062 97.49789063 118.12828125 98.26953125 117.1640625 C104.28492561 109.79402028 110.79314503 102.99583458 117.5 96.25 C118.36592773 95.3748877 119.23185547 94.49977539 120.12402344 93.59814453 C126.10718916 87.64312693 132.38893895 82.24365604 139 77 C140.20372961 76.02287977 141.40695048 75.04513205 142.609375 74.06640625 C162.10819623 58.43098782 187.53386071 38.99961737 213 36 C211.53624349 39.77112842 209.75093034 41.05233746 206.2578125 42.99609375 C204.79698242 43.82391357 204.79698242 43.82391357 203.30664062 44.66845703 C201.73172852 45.5441333 201.73172852 45.5441333 200.125 46.4375 C169.84351781 63.70047887 143.02079056 83.99943225 118.27529907 108.54946899 C116.85440998 109.95844151 115.42958212 111.36343847 114.00463867 112.76831055 C107.89772292 118.8675947 102.36784184 125.24658772 97 132 C95.98207999 133.23655509 94.96059097 134.47019217 93.93359375 135.69921875 C93.10988281 136.68535156 92.28617188 137.67148437 91.4375 138.6875 C89.95833333 140.45833333 88.47916667 142.22916667 87 144 C97.74287879 140.94406094 108.329944 137.59628991 118.86691284 133.89437866 C133.45109457 128.78378299 148.07535822 124.02849595 163 120 C164.55968506 119.56977539 164.55968506 119.56977539 166.15087891 119.13085938 C185.60098999 113.80651109 205.18197007 110.34520231 225.08990479 107.29492188 C227.7427952 106.88531119 230.39267259 106.45728063 233.04296875 106.03125 C275.65957903 99.35214157 319.19696941 100.54429884 361.375 109.5 C362.33229004 109.70149658 363.28958008 109.90299316 364.27587891 110.1105957 C369.49370958 111.26552872 374.1681197 112.71051402 379 115 C379 115.66 379 116.32 379 117 C375.83594238 116.69585146 372.67194888 116.39107056 369.50805664 116.08520508 C366.7028969 115.81438964 363.89736436 115.54790688 361.09155273 115.28393555 C354.36544794 114.64670779 347.65302782 113.97906405 340.94921875 113.1328125 C307.69087202 109.06748155 273.16296464 109.24087964 240 114 C238.59036817 114.19557316 237.18069865 114.39087479 235.77099609 114.5859375 C187.49798099 121.35096121 140.85570332 134.73038804 95 151 C96.48935059 151.09704224 96.48935059 151.09704224 98.00878906 151.19604492 C181.40034576 156.72278144 261.90811588 175.56582138 337 213 C337.80550293 213.4007373 338.61100586 213.80147461 339.44091797 214.21435547 C355.97237894 222.51067977 371.68772199 232.26231024 386 244 C386.84820313 244.69480469 387.69640625 245.38960937 388.5703125 246.10546875 C392.59618222 249.50711825 392.59618222 249.50711825 394 251 C394 251.66 394 252.32 394 253 C390.36043583 252.44399951 387.90919559 251.55241766 384.875 249.48046875 C383.70892212 248.69833008 383.70892212 248.69833008 382.51928711 247.90039062 C381.27223999 247.05250977 381.27223999 247.05250977 380 246.1875 C310.13824116 199.89794451 223.73868349 172.8138815 124 162.1875 C123.26649323 162.12388275 122.53298645 162.0602655 121.7772522 161.99472046 C111.16777184 161.09484059 100.64509074 160.85761025 90 161 C91.10214844 161.64324219 92.20429687 162.28648437 93.33984375 162.94921875 C104.52497496 169.5740381 114.85681778 176.88011571 125 185 C125.54269531 185.43086914 126.08539062 185.86173828 126.64453125 186.30566406 C137.02041237 194.5567685 146.69722426 203.50068355 156.0625 212.875 C156.94156006 213.75486572 157.82062012 214.63473145 158.72631836 215.54125977 C163.79251293 220.6556543 168.61286265 225.77541832 173.0234375 231.46875 C174.87605904 233.84127719 176.82351154 236.10160321 178.81152344 238.36083984 C192.75773219 254.34107691 203.78684826 272.47561576 214 291 C214.38704102 291.69996094 214.77408203 292.39992188 215.17285156 293.12109375 C216 295 216 295 216 298 C212.71726771 296.62204134 211.18462574 295.25612962 209.2578125 292.28125 C208.50504028 291.14320923 208.50504028 291.14320923 207.73706055 289.98217773 C207.20508057 289.16305908 206.67310059 288.34394043 206.125 287.5 C199.54203944 277.61565501 192.39563994 268.28440233 185 259 C184.24976563 258.04609375 183.49953125 257.0921875 182.7265625 256.109375 C170.89998901 241.14513915 158.2025002 227.13538413 144.75 213.625 C144.00548584 212.87581299 143.26097168 212.12662598 142.49389648 211.35473633 C137.82485625 206.69918593 133.0207206 202.2729537 128 198 C127.47293457 197.54496094 126.94586914 197.08992187 126.40283203 196.62109375 C117.80873868 189.26975335 108.59303395 182.87943 99.1875 176.625 C98.32165787 176.04859268 98.32165787 176.04859268 97.43832397 175.46054077 C93.64570901 172.94193953 89.82923036 170.46272543 86 168 C85.0404541 167.37061523 84.0809082 166.74123047 83.09228516 166.09277344 C82.21233887 165.53364258 81.33239258 164.97451172 80.42578125 164.3984375 C79.66305908 163.90778809 78.90033691 163.41713867 78.11450195 162.91162109 C76.06188462 161.82542637 76.06188462 161.82542637 73.91772461 162.19921875 C70.52686883 163.61513307 67.96123726 166.20361019 65.25 168.625 C64.59894287 169.19822998 63.94788574 169.77145996 63.27709961 170.36206055 C50.27266989 181.88656352 37.15606133 193.64293624 26 207 C25.5879834 207.49290527 25.1759668 207.98581055 24.75146484 208.49365234 C14.68344404 220.61490101 5.79476623 233.51358498 -3.0859375 246.515625 C-16.31061426 265.87374284 -16.31061426 265.87374284 -21 269 C-20.59107191 262.26198036 -17.90126851 257.20468986 -14.75 251.3125 C-14.21713379 250.30590332 -13.68426758 249.29930664 -13.13525391 248.26220703 C-3.0361776 229.50425516 8.95173784 212.18487075 23.53515625 196.65234375 C25.49548868 194.54288936 27.36054683 192.41054058 29.1875 190.1875 C31.78959315 187.11229901 34.68611683 184.53744526 37.75390625 181.93359375 C40.27103555 179.76667374 42.69231147 177.5112215 45.125 175.25 C51.45924244 169.45920171 58.1964374 164.2243415 65 159 C62.27163535 158.6788325 59.54260664 158.3682546 56.8125 158.0625 C55.71711914 157.93198242 55.71711914 157.93198242 54.59960938 157.79882812 C15.09240732 153.4449732 -26.76137096 153.56433991 -66 160 C-67.16966309 160.18723633 -68.33932617 160.37447266 -69.54443359 160.56738281 C-102.88559291 166.05396267 -134.55676285 176.77448789 -165.49731445 190.15307617 C-167.20987427 190.88361206 -167.20987427 190.88361206 -168.95703125 191.62890625 C-169.95710205 192.06275635 -170.95717285 192.49660645 -171.98754883 192.94360352 C-175.32200881 194.11292099 -178.49582503 194.60516724 -182 195 C-176.35761447 181.66345237 -149.05048726 174.27262799 -136.66796875 169.25 C-129.85429644 166.52854634 -123.06959178 163.9914343 -116 162 C-115.08492676 161.74154297 -114.16985352 161.48308594 -113.22705078 161.21679688 C-58.43705674 146.05348253 -3.37317161 145.23076153 53 149 C-25.64954227 111.89978724 -109.76917314 84.97588369 -207.90814209 83.46777344 C-211.53580754 83.41679681 -215.16340742 83.36151571 -218.79101562 83.30664062 C-225.86061988 83.20031074 -232.93028346 83.09860867 -240 83 C-240 82.34 -240 81.68 -240 81 C-237.52161318 80.5164865 -235.04240222 80.03812799 -232.5625 79.5625 C-231.87478516 79.42779297 -231.18707031 79.29308594 -230.47851562 79.15429688 C-221.24825175 77.39410702 -212.25683791 76.84164274 -202.86328125 76.83203125 C-201.70741013 76.82870285 -200.551539 76.82537445 -199.36064148 76.82194519 C-196.91743362 76.81690011 -194.47421892 76.81453611 -192.03100586 76.81469727 C-188.36885554 76.8125333 -184.70701812 76.79441386 -181.04492188 76.77539062 C-161.07963574 76.72573478 -141.58929417 77.99422838 -121.9375 81.5625 C-121.23543427 81.68871735 -120.53336853 81.81493469 -119.81002808 81.94497681 C-89.91352871 87.35667678 -60.78068074 95.3224961 -32 105 C-31.36126953 105.21440735 -30.72253906 105.4288147 -30.06445312 105.64971924 C-0.86009318 115.48297371 27.03592853 128.15030304 55 141 C50.88968273 135.69582699 46.21157748 131.025521 41.47583008 126.29052734 C39.96076563 124.77329886 38.45387212 123.24827745 36.94726562 121.72265625 C31.36227865 116.10619056 25.64335634 110.87975719 19.41992188 105.95849609 C17.02981768 104.0241321 14.79335624 101.98968235 12.5625 99.875 C4.57039431 92.60598959 -4.28874736 86.36851771 -13 80 C-13.73702148 79.45907715 -14.47404297 78.9181543 -15.23339844 78.36083984 C-36.46938295 62.84071832 -59.2174357 49.52018576 -82.87011719 38.04052734 C-85.09086149 36.95561077 -87.29904471 35.84735467 -89.5078125 34.73828125 C-97.71946425 30.67226945 -106.00110473 26.93909914 -114.5390625 23.61328125 C-115.28170853 23.32397232 -116.02435455 23.03466339 -116.789505 22.73658752 C-120.51225596 21.29254238 -124.2415709 19.86840536 -127.98022461 18.46606445 C-129.36313231 17.93835003 -130.74602679 17.41060093 -132.12890625 16.8828125 C-133.35681885 16.42277832 -134.58473145 15.96274414 -135.84985352 15.48876953 C-138.96377636 14.01711941 -140.76735811 12.58699093 -143 10 C-142 9 -142 9 -140.3125 8.9453125 C-101.13402345 11.98958602 -59.10764922 39.12848139 -27 60 C-25.4221875 61.01126953 -25.4221875 61.01126953 -23.8125 62.04296875 C-11.0822146 70.33533521 1.12622531 79.49920441 12.875 89.125 C13.50301514 89.63756348 14.13103027 90.15012695 14.77807617 90.67822266 C27.87683947 101.55882331 39.81840251 113.68858416 51.8125 125.75 C53.39103944 127.33356922 54.96981403 128.91690407 56.54882812 130.5 C60.36859338 134.33064282 64.18547306 138.16414123 68 142 C63.43213477 123.68948894 63.43213477 123.68948894 57.4375 105.8125 C57.01895752 104.70213379 56.60041504 103.59176758 56.16918945 102.44775391 C42.81105161 67.7550187 25.55209233 33.27914182 2.38671875 4.078125 C0 1 0 1 0 0 Z " fill="#FCFDFB" transform="translate(423,200)"/>
<path d="M0 0 C3.76603869 1.56282982 6.13639151 3.9063475 8.984375 6.7890625 C9.44483215 7.25234955 9.90528931 7.7156366 10.37969971 8.19296265 C11.84125078 9.66565898 13.29567168 11.14517403 14.75 12.625 C15.74302611 13.62806322 16.73651089 14.63067257 17.73046875 15.6328125 C20.15897941 18.08330835 22.58114675 20.5399667 25 23 C24.34 23.33 23.68 23.66 23 24 C21.0546875 23.22265625 21.0546875 23.22265625 18.875 22.0625 C18.15054687 21.68222656 17.42609375 21.30195313 16.6796875 20.91015625 C16.12539063 20.60980469 15.57109375 20.30945313 15 20 C15.66 19.34 16.32 18.68 17 18 C16.2275293 17.23538452 16.2275293 17.23538452 15.43945312 16.45532227 C13.12372956 14.16029352 10.81182219 11.86145832 8.5 9.5625 C7.68917969 8.76005859 6.87835938 7.95761719 6.04296875 7.13085938 C5.27597656 6.36708984 4.50898438 5.60332031 3.71875 4.81640625 C3.00654297 4.10943604 2.29433594 3.40246582 1.56054688 2.67407227 C0 1 0 1 0 0 Z " fill="#AAC67D" transform="translate(455,318)"/>
<path d="M0 0 C0.66 0.33 1.32 0.66 2 1 C-3.94 6.94 -9.88 12.88 -16 19 C-16.66 18.67 -17.32 18.34 -18 18 C-12.37361021 11.50903494 -6.55902307 5.55113536 0 0 Z " fill="#B0CB86" transform="translate(174,237)"/>
<path d="M0 0 C-6.05909177 2.60715728 -12.22077938 4.80577515 -18.5 6.8125 C-19.55960938 7.15897583 -19.55960938 7.15897583 -20.640625 7.51245117 C-25.76265911 9.11867044 -25.76265911 9.11867044 -28 8 C-26.35 6.68 -24.7 5.36 -23 4 C-23 4.66 -23 5.32 -23 6 C-22.37432129 5.7827124 -21.74864258 5.5654248 -21.10400391 5.34155273 C-18.28028412 4.36576627 -15.45276092 3.4015094 -12.625 2.4375 C-11.64015625 2.09525391 -10.6553125 1.75300781 -9.640625 1.40039062 C-8.69960938 1.08134766 -7.75859375 0.76230469 -6.7890625 0.43359375 C-5.91975098 0.13509521 -5.05043945 -0.16340332 -4.15478516 -0.47094727 C-2 -1 -2 -1 0 0 Z " fill="#ADC883" transform="translate(537,336)"/>
<path d="M0 0 C0.66 0.33 1.32 0.66 2 1 C1.11957031 1.86882812 0.23914063 2.73765625 -0.66796875 3.6328125 C-1.84128125 4.7967385 -3.01445073 5.9608087 -4.1875 7.125 C-4.76564453 7.69476563 -5.34378906 8.26453125 -5.93945312 8.8515625 C-9.52048345 12.41236101 -12.82820353 16.06960061 -16 20 C-16.66 19.67 -17.32 19.34 -18 19 C-12.20862223 12.44191501 -6.25299712 6.11995462 0 0 Z " fill="#AEC984" transform="translate(471,383)"/>
</svg>
